<?xml version="1.0" encoding="utf-8"?>
<!-- Generator: Adobe Illustrator 21.1.0, SVG Export Plug-In . SVG Version: 6.00 Build 0)  -->
<svg version="1.1" id="avatarmaleheart" xmlns="http://www.w3.org/2000/svg" xmlns:xlink="http://www.w3.org/1999/xlink" x="0px"
	 y="0px" viewBox="0 0 224 224" style="enable-background:new 0 0 224 224;" xml:space="preserve">
<style type="text/css">
	.st0{fill:#FFFFFF;}
</style>
<g>
	<path className="st0" d="M220,108c-2.2,0-4,1.8-4,4c0,27.4-10.6,52.3-28,70.9v-11.3c0-13.5-11.1-24.5-24.6-24.5h-22.5l-8-16.3
		c12.1-6.5,20.8-18.4,22.8-32.6c5-2.1,8.4-7.1,8.4-12.8v-2.8c0-5.5-3.2-10.4-8-12.6V36c0-2.2-1.8-4-4-4H98.7
		C82,32,68.5,45.6,68.5,62.2v7.6c-5,2.1-8.5,7.1-8.5,12.8v2.8c0,5.8,3.7,11,8.9,13c1.9,13.4,9.9,24.8,21,31.5
		c-0.1,0.1-0.2,0.2-0.3,0.4l-8.3,16.9H61.6C47.7,147.1,36,158.5,36,172v10.9C18.6,164.3,8,139.4,8,112C8,54.7,54.7,8,112,8
		c2.2,0,4-1.8,4-4s-1.8-4-4-4C50.2,0,0,50.2,0,112c0,33,14.3,62.7,37.1,83.2c0.1,0.1,0.1,0.1,0.2,0.2c19.8,17.8,46,28.6,74.7,28.6
		c61.8,0,112-50.2,112-112C224,109.8,222.2,108,220,108z M76.6,94.9c-0.1-1.9-1.6-3.4-3.5-3.7c-2.9-0.4-5.1-2.9-5.1-5.9v-2.8
		c0-3,2.1-5.4,5-5.8c2-0.3,3.4-2,3.4-4V62.2C76.5,50,86.4,40,98.7,40H148v32.9c0,1.9,1.4,3.6,3.2,3.9c2.8,0.5,4.8,3,4.8,5.8v2.8
		c0,2.9-2,5.3-4.8,5.8c-1.8,0.3-3.1,1.8-3.3,3.7c-1.3,18.6-17,33.1-35.7,33.1C93.6,128,77.9,113.5,76.6,94.9z M44,190.6V172
		c0-9,8.2-16.9,17.6-16.9h22.3c1.5,0,2.9-0.9,3.6-2.2l9.4-19.1c0.1-0.2,0.1-0.4,0.1-0.6c4.8,1.8,9.9,2.8,15.3,2.8
		c4.6,0,9-0.8,13.2-2.1l9.3,19c0.7,1.4,2.1,2.2,3.6,2.2h25c9.2,0,16.6,7.4,16.6,16.5v19c-18.2,15.8-42,25.4-68,25.4
		S62.2,206.4,44,190.6z"/>
	<path className="st0" d="M194,58.6c0.4,0,0.8,0,1.2,0c8.2,0,17-5.7,22.1-14.7c3.4-5.8,4.9-12.3,4.2-18.2c-0.7-6.4-3.7-11.5-8.6-14.3
		c-5.6-3.2-12.5-2.8-19,0.9c-6.5-3.8-13.4-4.1-19-0.9c-4.8,2.8-7.9,7.9-8.6,14.3c-0.6,5.9,0.9,12.4,4.2,18.2
		C176.1,53.4,185.4,59.2,194,58.6z M174.4,26.6c0.4-3.8,2-6.7,4.6-8.2c3.4-2,8.2-1.2,12.7,2c1.4,1,3.3,1,4.7,0c4.5-3.2,9.2-4,12.7-2
		c2.6,1.5,4.2,4.4,4.6,8.2c0.5,4.3-0.7,9-3.2,13.4c-3.9,6.8-10.5,11.2-16,10.6c-0.1,0-0.2,0-0.4,0s-0.2,0-0.4,0
		c-5.5,0.6-12.1-3.9-16-10.6C175.1,35.6,174,30.9,174.4,26.6z"/>
</g>
</svg>
