<svg id="Layer_1" data-name="Layer 1" xmlns="http://www.w3.org/2000/svg" xmlns:xlink="http://www.w3.org/1999/xlink" viewBox="0 0 186.04 94.85"><defs><style>.cls-1,.cls-2,.cls-3{fill:none;}.cls-2,.cls-3{clip-path:url(#clip-path);}.cls-3{clip-rule:evenodd;}.cls-4{clip-path:url(#clip-path-13);}.cls-5{fill:#fff;}.cls-6{clip-path:url(#clip-path-14);}.cls-7{clip-path:url(#clip-path-15);}.cls-8{clip-path:url(#clip-path-16);}.cls-9{clip-path:url(#clip-path-17);}.cls-10{clip-path:url(#clip-path-18);}.cls-11{clip-path:url(#clip-path-19);}.cls-12{clip-path:url(#clip-path-20);}.cls-13{clip-path:url(#clip-path-21);}.cls-14{clip-path:url(#clip-path-22);}.cls-15{clip-path:url(#clip-path-23);}.cls-16{clip-path:url(#clip-path-24);}</style><clipPath id="clip-path"><rect class="cls-1" x="416.39" y="334.71" width="167" height="66"/></clipPath><clipPath id="clip-path-13" transform="translate(-406.71 -318.76)"><path class="cls-2" d="M484.76,339.25a23.67,23.67,0,0,0,7.8,42.27l4.67,9a1,1,0,0,0,.85.51.94.94,0,0,0,.84-.53l4.17-8.72a23.35,23.35,0,0,0,8.79-3.79,23.65,23.65,0,0,0-27.13-38.75Zm26,37.19a21.47,21.47,0,0,1-8.53,3.57.94.94,0,0,0-.68.52L498,388l-4-7.7a1,1,0,0,0-.63-.49,21.69,21.69,0,1,1,17.39-3.34Z"/></clipPath><clipPath id="clip-path-14" transform="translate(-406.71 -318.76)"><path class="cls-2" d="M492.43,356.76a2.76,2.76,0,1,0,2.76,2.76,2.76,2.76,0,0,0-2.76-2.76Zm0,3.68a.92.92,0,1,1,.92-.92.92.92,0,0,1-.92.92Z"/></clipPath><clipPath id="clip-path-15" transform="translate(-406.71 -318.76)"><path class="cls-2" d="M499.16,356.76a2.76,2.76,0,1,0,2.76,2.76,2.76,2.76,0,0,0-2.76-2.76Zm0,3.68a.92.92,0,1,1,.92-.92.92.92,0,0,1-.92.92Z"/></clipPath><clipPath id="clip-path-16" transform="translate(-406.71 -318.76)"><path class="cls-2" d="M505.9,356.76a2.76,2.76,0,1,0,2.76,2.76,2.76,2.76,0,0,0-2.76-2.76Zm0,3.68a.92.92,0,1,1,.92-.92.92.92,0,0,1-.92.92Z"/></clipPath><clipPath id="clip-path-17" transform="translate(-406.71 -318.76)"><path class="cls-2" d="M564,354.15a23.44,23.44,0,0,0-25.36,34.21l-3.37,9.47a.94.94,0,0,0,.21,1,.93.93,0,0,0,1,.25l9.14-2.87a23.13,23.13,0,0,0,8.68,3.81A23.43,23.43,0,0,0,564,354.15Zm-9.35,44a21.27,21.27,0,0,1-8.35-3.77.93.93,0,0,0-.84-.14l-7.8,2.45,2.88-8.1a.94.94,0,0,0-.07-.78,21.48,21.48,0,1,1,14.17,10.34Z"/></clipPath><clipPath id="clip-path-18" transform="translate(-406.71 -318.76)"><path class="cls-2" d="M435.5,354.15a23.44,23.44,0,0,1,25.36,34.21l3.37,9.47a.94.94,0,0,1-.21,1,.93.93,0,0,1-1,.25l-9.14-2.87a23.13,23.13,0,0,1-8.68,3.81,23.43,23.43,0,0,1-9.74-45.83Zm9.35,44a21.27,21.27,0,0,0,8.35-3.77.93.93,0,0,1,.84-.14l7.8,2.45-2.88-8.1a.94.94,0,0,1,.07-.78,21.48,21.48,0,1,0-14.17,10.34Z"/></clipPath><clipPath id="clip-path-19" transform="translate(-406.71 -318.76)"><path class="cls-3" d="M559.15,390.48c-1.24-.34-12.94-9.53-12.94-15.32,0-5,2.43-7.49,7.46-7.49a7.55,7.55,0,0,1,5.14,2,.53.53,0,0,0,.73,0,7.55,7.55,0,0,1,5.14-2c5,0,7.46,2.44,7.46,7.49-.06,5.67-11.47,14.86-13,15.32m5.69-24.37a9,9,0,0,0-5.69,2.06,9,9,0,0,0-5.69-2.06c-5.81,0-8.86,3.06-8.86,8.9,0,4.3,5.16,9.66,8.22,12.49,1.35,1.24,5,4.42,6.28,4.54h.12c1.17-.12,4.81-3.24,6.16-4.42,3.11-2.83,8.39-8.25,8.39-12.55-.06-5.89-3.11-9-8.92-9"/></clipPath><clipPath id="clip-path-20" transform="translate(-406.71 -318.76)"><path class="cls-2" d="M449.94,371.08a.59.59,0,0,0-.25-.48l-8.54-5.89a.59.59,0,0,0-.67,0l-8.54,5.89a.59.59,0,0,0-.25.48v17.67H430.5v1.18h20.61v-1.18h-1.18V371.08Zm-13.54,17.67v-5.3h2.36v5.3Zm3.53,0v-5.89a.59.59,0,0,0-.59-.59H435.8a.59.59,0,0,0-.59.59v5.89h-2.36V371.39l7.95-5.48,7.95,5.48v17.36Z"/></clipPath><clipPath id="clip-path-21" transform="translate(-406.71 -318.76)"><path class="cls-2" d="M451.15,369.12l-10-6.77a.59.59,0,0,0-.66,0l-10,6.77a.59.59,0,1,0,.66,1l9.68-6.55,9.68,6.55a.59.59,0,0,0,.66-1Z"/></clipPath><clipPath id="clip-path-22" transform="translate(-406.71 -318.76)"><path class="cls-2" d="M446.4,382.27h-4.12a.59.59,0,0,0-.59.59v2.94a.59.59,0,0,0,.59.59h4.12a.59.59,0,0,0,.59-.59v-2.94a.59.59,0,0,0-.59-.59Zm-.59,2.94h-2.94v-1.77h2.94v1.77Z"/></clipPath><clipPath id="clip-path-23" transform="translate(-406.71 -318.76)"><path class="cls-2" d="M446.4,375.21h-4.12a.59.59,0,0,0-.59.59v2.94a.59.59,0,0,0,.59.59h4.12a.59.59,0,0,0,.59-.59V375.8a.59.59,0,0,0-.59-.59Zm-.59,2.94h-2.94v-1.77h2.94v1.77Z"/></clipPath><clipPath id="clip-path-24" transform="translate(-406.71 -318.76)"><path class="cls-2" d="M439.34,375.21h-4.12a.59.59,0,0,0-.59.59v2.94a.59.59,0,0,0,.59.59h4.12a.59.59,0,0,0,.59-.59V375.8a.59.59,0,0,0-.59-.59Zm-.59,2.94H435.8v-1.77h2.94v1.77Z"/></clipPath></defs><title>icons</title><g class="cls-4"><rect class="cls-5" x="470.58" y="329.71" width="57.17" height="60.23" transform="matrix(0.82, -0.57, 0.57, 0.82, -522.83, 32.63)"/></g><g class="cls-6"><rect class="cls-5" x="77.95" y="33" width="15.51" height="15.51"/></g><g class="cls-7"><rect class="cls-5" x="84.69" y="33" width="15.51" height="15.51"/></g><g class="cls-8"><rect class="cls-5" x="91.43" y="33" width="15.51" height="15.51"/></g><g class="cls-9"><rect class="cls-5" x="528.92" y="350.12" width="59.76" height="56.73" transform="translate(-334.31 527.62) rotate(-78)"/></g><g class="cls-10"><rect class="cls-5" x="412.31" y="348.6" width="56.73" height="59.76" transform="translate(-475.78 -218.87) rotate(-12)"/></g><g class="cls-11"><rect class="cls-5" x="132.88" y="43.36" width="39.17" height="35.93"/></g><g class="cls-12"><rect class="cls-5" x="18.79" y="40.85" width="30.61" height="35.32"/></g><g class="cls-13"><rect class="cls-5" x="18.5" y="38.5" width="31.2" height="17.95"/></g><g class="cls-14"><rect class="cls-5" x="29.98" y="58.52" width="15.3" height="14.12"/></g><g class="cls-15"><rect class="cls-5" x="29.98" y="51.45" width="15.3" height="14.12"/></g><g class="cls-16"><rect class="cls-5" x="22.91" y="51.45" width="15.3" height="14.12"/></g></svg>