<?xml version="1.0" encoding="utf-8"?>
<!-- Generator: Adobe Illustrator 21.1.0, SVG Export Plug-In . SVG Version: 6.00 Build 0)  -->
<svg version="1.1" id="megaphone" xmlns="http://www.w3.org/2000/svg" xmlns:xlink="http://www.w3.org/1999/xlink" x="0px" y="0px"
	 viewBox="0 0 216 137.8" style="enable-background:new 0 0 216 137.8;" xml:space="preserve">
<style type="text/css">
	.st0{fill:#FFFFFF;}
</style>
<g>
	<path className="st0" d="M198,45.8h-10v-36c0-3.4-1.4-6.4-3.9-8.2c-2.5-1.7-5.7-2.1-9-0.9l-97,34.6C72.4,37.4,68,43.6,68,49.8v31.9
		c0,6.1,4.5,12.5,10.2,14.5l97,34.6c1.3,0.4,2.5,0.7,3.7,0.7c1.9,0,3.7-0.5,5.2-1.6c2.5-1.8,3.9-4.7,3.9-8.2v-32h10
		c9.9,0,18-8.1,18-18v-8C216,53.8,207.9,45.8,198,45.8z M180,121.7c0,0.8-0.2,1.4-0.5,1.6s-0.9,0.2-1.7-0.1l-97-34.6
		c-2.5-0.9-4.9-4.2-4.9-7V49.8c0-2.8,2.3-6,4.9-7l97-34.6c0.4-0.1,0.8-0.2,1.1-0.2s0.5,0.1,0.6,0.1c0.3,0.2,0.5,0.8,0.5,1.6v40v36
		L180,121.7L180,121.7z M208,71.7c0,5.5-4.5,10-10,10h-10v-28h10c5.5,0,10,4.5,10,10V71.7z"/>
	<path className="st0" d="M56,41.8H4c-2.2,0-4,1.8-4,4v40v48c0,2.2,1.8,4,4,4h28c1.7,0,3.2-1.1,3.8-2.7l15.1-45.3H56c2.2,0,4-1.8,4-4
		v-40C60,43.5,58.2,41.8,56,41.8z M29.1,129.8H8v-40h34.5L29.1,129.8z M52,81.8h-4H8v-32h44V81.8z"/>
</g>
</svg>
