<svg xmlns="http://www.w3.org/2000/svg" viewBox="0 0 473.06 473.06"><defs><style>.cls-1,.cls-6{font-size:75.74px;}.cls-1,.cls-6,.cls-7{fill:#fff;}.cls-1{font-family:Futura-Medium, Futura;letter-spacing:-0.01em;}.cls-2{letter-spacing:-0.03em;}.cls-3,.cls-6{letter-spacing:-0.01em;}.cls-4{letter-spacing:-0.02em;}.cls-5{letter-spacing:0.04em;}.cls-6{font-family:Futura-Bold, Futura;font-weight:700;}</style></defs><title>PropertySimple_circle_white</title><g id="PropertySimple"><text class="cls-1" transform="translate(44.82 273.35)">P<tspan class="cls-2" x="40.15" y="0">R</tspan><tspan class="cls-3" x="83.7" y="0">OPE</tspan><tspan class="cls-4" x="232.84" y="0">R</tspan><tspan class="cls-5" x="277.01" y="0">T</tspan><tspan x="316.49" y="0">Y</tspan></text><text class="cls-6" transform="translate(125.56 342.89)">SIMPLE</text><path class="cls-7" d="M361.78,136.91c.06-.25.51-.35,1-.22l8.58,2.26c.49.13.83.44.77.69l-2.67,10.15c-.06.25-.51.35-1,.22l-8.59-2.26c-.49-.13-.83-.44-.77-.69Zm4.48-17.79c.06-.25.51-.35,1-.22l8.59,2.26c.49.13.83.43.78.68L374,132c-.06.25-.51.34-1,.22L364.36,130c-.5-.13-.84-.44-.78-.69Zm20,28.8c.06-.25.52-.35,1-.22l8.6,2.26c.48.13.83.44.77.69l-2.68,10.15c-.06.25-.51.35-1,.22l-8.59-2.27c-.5-.12-.84-.43-.77-.68Zm31.86,68.39-.08,0c-3.26-1.94-6.53-3.9-9.88-5.73s-6.76-3.49-10.18-5.16c-3.13-1.5-6.28-3-9.45-4.42a2.13,2.13,0,0,0,.69-1.05l13.41-51a2.4,2.4,0,0,0-1.78-2.89l-23-6a2,2,0,0,0-.69-.05l5.23-19.89c.46-1.76-.22-3.48-1.53-3.82l-23-6c-1.31-.34-2.75.8-3.21,2.58l-9.48,36-18.78-4.94a2,2,0,0,0-2.6,1l-9,34a369,369,0,0,0-73.07-5.18,413.4,413.4,0,0,0-45.72,3.62c-7.57,1-15.11,2.21-22.62,3.55s-14.94,3-22.36,4.78c-29.62,7.13-58.53,17-85.63,30.88a1.07,1.07,0,0,0,.84,2h0q21.28-7.45,43.11-12.79c14.52-3.65,29.11-6.89,43.83-9.39,7.35-1.27,14.74-2.35,22.12-3.35s14.77-1.95,22.17-2.69q22.23-2.19,44.54-2.35c14.84,0,29.69.28,44.47,1.52a423.53,423.53,0,0,1,44,6,365.14,365.14,0,0,1,43.24,10.39c7.11,2.13,14.2,4.36,21.2,6.88q5.25,1.89,10.45,3.94c3.49,1.31,7,2.7,10.4,4.12a2.49,2.49,0,0,0,2.22-4.45" transform="translate(-13.47 -13.47)"/></g><g id="Circle"><path class="cls-7" d="M250,486.53C119.58,486.53,13.47,380.42,13.47,250S119.58,13.47,250,13.47,486.53,119.58,486.53,250,380.42,486.53,250,486.53ZM250,20C123.18,20,20,123.18,20,250S123.18,480,250,480,480,376.82,480,250,376.82,20,250,20Z" transform="translate(-13.47 -13.47)"/></g></svg>