<?xml version="1.0" encoding="utf-8"?>
<!-- Generator: Adobe Illustrator 21.1.0, SVG Export Plug-In . SVG Version: 6.00 Build 0)  -->
<svg version="1.1" id="analysischart" xmlns="http://www.w3.org/2000/svg" xmlns:xlink="http://www.w3.org/1999/xlink" x="0px"
	 y="0px" viewBox="0 0 216 216" style="enable-background:new 0 0 216 216;" xml:space="preserve">
<style type="text/css">
	.st0{fill:#FFFFFF;}
</style>
<g>
	<path className="st0" d="M108,0h-4v104H0v4c0,59.6,48.4,108,108,108s108-48.4,108-108S167.6,0,108,0z M108,208
		c-53.8,0-97.8-42.7-99.9-96H112V8.1c53.3,2.1,96,46.1,96,99.9C208,163.1,163.1,208,108,208z"/>
	<path className="st0" d="M192,104c-2.2,0-4,1.8-4,4c0,44.1-35.9,80-80,80c-2.2,0-4,1.8-4,4s1.8,4,4,4c48.5,0,88-39.5,88-88
		C196,105.8,194.2,104,192,104z"/>
	<rect x="80" y="40" className="st0" width="8" height="56"/>
	<rect x="64" y="60" className="st0" width="8" height="36"/>
	<rect x="48" y="32" className="st0" width="8" height="64"/>
	<rect x="32" y="20" className="st0" width="8" height="76"/>
	<rect x="16" y="48" className="st0" width="8" height="48"/>
</g>
</svg>
