<?xml version="1.0" encoding="utf-8"?>
<!-- Generator: Adobe Illustrator 21.1.0, SVG Export Plug-In . SVG Version: 6.00 Build 0)  -->
<svg version="1.1" id="Layer_1" xmlns="http://www.w3.org/2000/svg" xmlns:xlink="http://www.w3.org/1999/xlink" x="0px" y="0px"
	 viewBox="0 0 100 100" style="enable-background:new 0 0 100 100;" xml:space="preserve">
<style type="text/css">
	.st0{fill:#FFFFFF;}
	.st1{font-family:'Futura-Medium';}
	.st2{font-size:15.743px;}
	.st3{font-family:'Futura-Bold';}
</style>
<g>
	<path class="st0" d="M50,99.2C22.9,99.2,0.8,77.1,0.8,50C0.8,22.9,22.9,0.8,50,0.8c27.1,0,49.2,22.1,49.2,49.2
		C99.2,77.1,77.1,99.2,50,99.2z M50,2.2C23.6,2.2,2.2,23.6,2.2,50c0,26.4,21.4,47.8,47.8,47.8c26.4,0,47.8-21.4,47.8-47.8
		C97.8,23.6,76.4,2.2,50,2.2z"/>
	<g>
		<text transform="matrix(1 0 0 1 10.1516 57.6531)" class="st0 st1 st2">PROPERTY</text>
		<text transform="matrix(1 0 0 1 26.9348 72.1062)" class="st0 st3 st2">SIMPLE</text>
		<path class="st0" d="M73.2,26.5c0-0.1,0.1-0.1,0.2,0l1.8,0.5c0.1,0,0.2,0.1,0.2,0.1l-0.6,2.1c0,0.1-0.1,0.1-0.2,0l-1.8-0.5
			c-0.1,0-0.2-0.1-0.2-0.1L73.2,26.5z M74.2,22.8c0-0.1,0.1-0.1,0.2,0l1.8,0.5c0.1,0,0.2,0.1,0.2,0.1l-0.6,2.1c0,0.1-0.1,0.1-0.2,0
			L73.8,25c-0.1,0-0.2-0.1-0.2-0.1L74.2,22.8z M78.3,28.8c0-0.1,0.1-0.1,0.2,0l1.8,0.5c0.1,0,0.2,0.1,0.2,0.1l-0.6,2.1
			c0,0.1-0.1,0.1-0.2,0L77.9,31c-0.1,0-0.2-0.1-0.2-0.1L78.3,28.8z M84.9,43L84.9,43c-0.7-0.4-1.4-0.8-2.1-1.2
			c-0.7-0.4-1.4-0.7-2.1-1.1c-0.6-0.3-1.3-0.6-2-0.9c0.1-0.1,0.1-0.1,0.1-0.2L81.7,29c0.1-0.3-0.1-0.5-0.4-0.6l-4.8-1.3
			c0,0-0.1,0-0.1,0l1.1-4.1c0.1-0.4,0-0.7-0.3-0.8l-4.8-1.3c-0.3-0.1-0.6,0.2-0.7,0.5l-2,7.5l-3.9-1c-0.3-0.1-0.5,0-0.5,0.2
			l-1.9,7.1c-5-0.9-10.1-1.2-15.2-1.1c-3.2,0.1-6.4,0.3-9.5,0.8c-1.6,0.2-3.1,0.5-4.7,0.7c-1.6,0.3-3.1,0.6-4.6,1
			c-6.2,1.5-12.2,3.5-17.8,6.4c-0.1,0-0.1,0.2-0.1,0.3c0,0.1,0.2,0.2,0.3,0.1l0,0c3-1,5.9-1.9,9-2.7c3-0.8,6.1-1.4,9.1-2
			c1.5-0.3,3.1-0.5,4.6-0.7c1.5-0.2,3.1-0.4,4.6-0.6c3.1-0.3,6.2-0.5,9.3-0.5c3.1,0,6.2,0.1,9.2,0.3c3.1,0.2,6.1,0.7,9.2,1.2
			c3,0.5,6,1.3,9,2.2c1.5,0.4,3,0.9,4.4,1.4c0.7,0.3,1.5,0.5,2.2,0.8c0.7,0.3,1.4,0.6,2.2,0.9c0.2,0.1,0.5,0,0.6-0.2
			C85.3,43.5,85.2,43.1,84.9,43"/>
	</g>
</g>
</svg>
